HIERARCHY
ROOT Hips
{
	OFFSET 0.000000 0.000000 0.000000
	CHANNELS 6 Xposition Yposition Zposition Zrotation Yrotation Xrotation 
	JOINT LHipJoint
	{
		OFFSET 0.000000 0.000000 0.000000
		CHANNELS 3 Zrotation Yrotation Xrotation
		JOINT LeftUpLeg
		{
			OFFSET 1.363060 -1.794630 0.839290
			CHANNELS 3 Zrotation Yrotation Xrotation
			JOINT LeftLeg
			{
				OFFSET 2.448110 -6.726130 0.000000
				CHANNELS 3 Zrotation Yrotation Xrotation
				JOINT LeftFoot
				{
					OFFSET 2.562200 -7.039590 0.000000
					CHANNELS 3 Zrotation Yrotation Xrotation
					JOINT LeftToeBase
					{
						OFFSET 0.157640 -0.433110 2.322550
						CHANNELS 3 Zrotation Yrotation Xrotation
						End Site
						{
							OFFSET 0.000000 0.000000 0.000000
						}
					}
				}
			}
		}
	}
	JOINT RHipJoint
	{
		OFFSET 0.000000 0.000000 0.000000
		CHANNELS 3 Zrotation Yrotation Xrotation
		JOINT RightUpLeg
		{
			OFFSET -1.305520 -1.794630 0.839290
			CHANNELS 3 Zrotation Yrotation Xrotation
			JOINT RightLeg
			{
				OFFSET -2.542530 -6.985550 0.000000
				CHANNELS 3 Zrotation Yrotation Xrotation
				JOINT RightFoot
				{
					OFFSET -2.568260 -7.056230 0.000000
					CHANNELS 3 Zrotation Yrotation Xrotation
					JOINT RightToeBase
					{
						OFFSET -0.164730 -0.452590 2.363150
						CHANNELS 3 Zrotation Yrotation Xrotation
						End Site
						{
							OFFSET 0.000000 0.000000 0.000000
						}
					}
				}
			}
		}
	}
}
MOTION
Frames: 27
Frame Time: 0.008333
10.091142 16.320299 1.341776 158.974536 -88.501389 -126.491793 -8.997147 -2.706517 0.119377 -12.119189 -7.205616 -78.478214 1.313167 4.862510 71.369797 2.807437 13.222598 -6.088410 1.001900 -0.000000 -37.074900 9.003072 -0.655053 -2.761961 13.923664 -3.476520 -38.803210 2.180578 -3.084032 46.456436 -1.941591 -4.459494 -20.077231 1.230400 0.000000 -74.046200
9.927391 16.385472 1.346757 156.950365 -88.526371 -124.513452 -8.863586 -2.554717 0.169106 -12.695870 -7.154855 -78.193633 0.987625 4.727274 68.611173 2.744598 12.723774 -6.180380 0.984200 -0.000000 -38.561200 9.092805 -0.730438 -2.854694 13.679884 -4.033950 -37.476743 2.261448 -2.971259 44.850541 -1.816825 -4.204875 -18.948081 1.052901 0.000000 -75.319800
9.760961 16.446301 1.352348 155.086422 -88.548921 -122.700261 -8.733383 -2.383926 0.234516 -13.283428 -7.086492 -77.827367 0.647155 4.578212 65.677050 2.695846 12.295336 -6.262638 0.978100 -0.000000 -39.927300 9.185438 -0.803740 -2.954988 13.441467 -4.646669 -36.126844 2.346848 -2.853364 43.204853 -1.691194 -3.928350 -17.830502 0.885600 0.000000 -76.586199
9.591737 16.502445 1.358775 153.894326 -88.547842 -121.563387 -8.615742 -2.194568 0.317083 -13.867155 -6.987801 -77.377484 0.289516 4.415987 62.566251 2.657572 11.914880 -6.349786 0.978000 0.000000 -41.103799 9.271090 -0.874119 -3.059494 13.204986 -5.287620 -34.743204 2.433961 -2.725571 41.510865 -1.564329 -3.627842 -16.719304 0.728800 0.000000 -77.836601
9.419633 16.553552 1.366241 153.846435 -88.505792 -121.573087 -8.519162 -1.991591 0.416398 -14.430972 -6.845756 -76.846218 -0.086866 4.239652 59.282837 2.625816 11.560588 -6.447493 0.980500 -0.000000 -42.031700 9.340051 -0.942023 -3.164978 12.966613 -5.926193 -33.316751 2.519973 -2.585015 39.764676 -1.435969 -3.302217 -15.610378 0.583100 -0.000000 -79.051400
9.244517 16.599287 1.374882 155.191691 -88.414245 -122.976257 -8.447252 -1.781409 0.533793 -14.957102 -6.653569 -76.242617 -0.481951 4.045640 55.837615 2.596788 11.213167 -6.557513 0.982901 0.000000 -42.665200 9.387757 -1.008492 -3.265709 12.724894 -6.532339 -31.845619 2.602479 -2.430691 37.966858 -1.306087 -2.951534 -14.501398 0.449100 0.000000 -80.207200
9.066302 16.639283 1.384707 157.979928 -88.265532 -125.818905 -8.398613 -1.569659 0.669121 -15.428151 -6.406190 -75.579090 -0.894156 3.829177 52.247774 2.567353 10.858557 -6.679279 0.983401 -0.000000 -43.006900 9.415289 -1.072265 -3.356971 12.478624 -7.078270 -30.331370 2.678541 -2.262946 36.126766 -1.175004 -2.578053 -13.391864 0.327900 -0.000000 -81.289699
8.885164 16.673248 1.395739 162.018788 -88.054558 -129.907704 -8.366716 -1.361603 0.822529 -15.825335 -6.104174 -74.872178 -1.319608 3.584305 48.536956 2.535520 10.489057 -6.814506 0.979900 0.000000 -43.101700 9.428951 -1.130691 -3.434763 12.228967 -7.541362 -28.782832 2.744974 -2.083794 34.263057 -1.043651 -2.187301 -12.282876 0.220600 0.000000 -82.289800
8.701089 16.700866 1.407908 166.896685 -87.779512 -134.825630 -8.341608 -1.163480 0.994381 -16.129573 -5.754676 -74.137697 -1.752115 3.303890 44.733596 2.500283 10.101180 -6.971877 0.969499 0.000000 -43.024200 9.438939 -1.182257 -3.495977 11.978506 -7.907211 -27.215161 2.799197 -1.897188 32.401277 -0.913457 -1.787512 -11.176106 0.128100 -0.000000 -83.208000
8.514218 16.721942 1.421110 172.109960 -87.442382 -140.066495 -8.313596 -0.984755 1.184592 -16.321471 -5.370566 -73.388050 -2.182688 2.980480 40.870047 2.461630 9.695222 -7.167824 0.947900 -0.000001 -42.858100 9.454740 -1.227872 -3.539482 11.730699 -8.171473 -25.648584 2.839857 -1.709340 30.572695 -0.786413 -1.389410 -10.073995 0.050601 0.000000 -84.055500
8.324721 16.736396 1.435353 177.225032 -87.048290 -145.194347 -8.277128 -0.836701 1.392683 -16.381645 -4.968106 -72.629674 -2.599717 2.607853 36.979788 2.420380 9.273796 -7.424197 0.909999 -0.000000 -42.693600 9.481354 -1.270546 -3.566280 11.488822 -8.338194 -24.104716 2.866895 -1.527458 28.810809 -0.664741 -1.004483 -8.978700 -0.012201 0.000000 -84.852300
8.132932 16.744323 1.450606 -178.049293 -86.602650 -149.922379 -8.231150 -0.730118 1.616104 -16.291169 -4.561531 -71.859013 -2.989273 2.183164 33.100828 2.378373 8.841286 -7.771090 0.849700 0.000000 -42.561400 9.519305 -1.313228 -3.580925 11.253684 -8.422930 -22.599177 2.881271 -1.358592 27.147784 -0.549943 -0.640213 -7.890678 -0.061100 0.000000 -85.627700
7.938802 16.745825 1.467034 -173.740935 -86.107330 -154.219218 -8.178370 -0.669948 1.854393 -16.028801 -4.159780 -71.078934 -3.336337 1.708908 29.266394 2.337437 8.403474 -8.219996 0.765500 0.000001 -42.556800 9.565129 -1.357630 -3.585588 11.033922 -8.431053 -21.148944 2.883226 -1.206682 25.609978 -0.444515 -0.310971 -6.808250 -0.097900 0.000000 -86.412101
7.742513 16.741187 1.484736 -169.879118 -85.566858 -158.061361 -8.121447 -0.658598 2.103966 -15.580421 -3.769810 -70.279335 -3.625683 1.191946 25.511048 2.299880 7.969725 -8.777147 0.657200 0.000000 -42.726599 9.616666 -1.404505 -3.584475 10.831479 -8.378191 -19.760988 2.873780 -1.075128 24.216050 -0.349173 -0.021904 -5.727144 -0.124600 0.000000 -87.239400
7.544215 16.730737 1.503946 -166.379214 -84.981851 -161.546437 -8.063273 -0.694695 2.354696 -14.938066 -3.382865 -69.447444 -3.843230 0.648816 21.897813 2.266703 7.543388 -9.448113 0.524700 0.000000 -42.959200 9.672534 -1.454007 -3.583602 10.649213 -8.285587 -18.423762 2.854575 -0.965182 22.971067 -0.263013 0.230936 -4.641126 -0.142700 -0.000000 -88.140300
7.344056 16.714813 1.524951 -163.120436 -84.353758 -164.806914 -8.006715 -0.772235 2.595273 -14.111237 -2.981912 -68.586014 -3.981136 0.103657 18.498741 2.235574 7.120548 -10.208098 0.373900 0.000001 -43.235300 9.731489 -1.507355 -3.583497 10.495923 -8.159047 -17.125945 2.826834 -0.876299 21.869115 -0.186083 0.445214 -3.543196 -0.154200 -0.000000 -89.135100
7.141413 16.693765 1.547442 -160.251279 -83.702242 -167.685209 -7.957361 -0.882811 2.825121 -13.132170 -2.588380 -67.687173 -4.038199 -0.426724 15.328343 2.208270 6.732360 -10.978810 0.222400 -0.000001 -43.580500 9.792548 -1.566728 -3.580291 10.357015 -8.011055 -15.883124 2.792647 -0.808905 20.906150 -0.118017 0.625333 -2.433869 -0.159800 -0.000000 -90.233499
6.936721 16.667775 1.572034 -157.497189 -83.019743 -170.480394 -7.917741 -1.013446 3.017584 -12.061980 -2.138121 -66.796188 -4.029020 -0.898433 12.554826 2.170899 6.320058 -11.741942 0.073099 -0.000000 -43.857700 9.853907 -1.635374 -3.571956 10.253086 -7.836097 -14.654775 2.753731 -0.759093 20.053607 -0.057727 0.774838 -1.306287 -0.160800 0.000000 -91.432700
6.729406 16.637233 1.597921 -155.155358 -82.336917 -172.880135 -7.895348 -1.152354 3.179267 -10.963965 -1.678505 -65.911772 -3.966761 -1.302557 10.161910 2.128431 5.941260 -12.380163 -0.049900 -0.000000 -44.143500 9.913027 -1.713457 -3.553870 10.147353 -7.652445 -13.471424 2.711897 -0.726957 19.309818 -0.003449 0.912510 -0.172108 -0.155200 0.000000 -92.720100
6.519345 16.602350 1.624954 -153.196439 -81.664480 -174.913255 -7.894025 -1.284998 3.303192 -9.910809 -1.201960 -65.077202 -3.873530 -1.617668 8.229836 2.076687 5.594919 -12.827487 -0.136200 -0.000000 -44.443600 9.967733 -1.801066 -3.522394 10.030132 -7.463624 -12.333289 2.668068 -0.709515 18.663477 0.046423 1.052718 0.959864 -0.141100 -0.000000 -94.073200
6.306362 16.563457 1.652397 -151.732809 -81.025216 -176.453945 -7.917560 -1.398703 3.399647 -8.941895 -0.756201 -64.309258 -3.760240 -1.842129 6.748783 2.025528 5.353122 -12.994137 -0.173100 0.000000 -44.818200 10.017361 -1.894270 -3.476893 9.869956 -7.286830 -11.268438 2.622153 -0.705272 18.121506 0.094073 1.218831 2.072188 -0.114000 -0.000000 -95.463600
6.090836 16.520699 1.680158 -150.613615 -80.424814 -177.656493 -7.964040 -1.480563 3.456481 -8.147638 -0.298851 -63.695003 -3.657949 -1.956791 5.838214 1.961672 5.154029 -12.861824 -0.160200 -0.000001 -45.263600 10.061800 -1.993838 -3.412635 9.674656 -7.115307 -10.276175 2.573674 -0.711223 17.681359 0.139362 1.411673 3.156080 -0.072600 0.000000 -96.856800
5.872775 16.474479 1.707305 -149.925097 -79.889462 -178.417674 -8.033128 -1.522827 3.488206 -7.543395 0.116269 -63.251032 -3.568993 -1.971145 5.457973 1.897456 5.068112 -12.372912 -0.091199 0.000000 -45.803400 10.103474 -2.094850 -3.332142 9.415464 -6.971492 -9.393923 2.520674 -0.727423 17.367856 0.183042 1.645296 4.196097 -0.012900 0.000000 -98.220900
5.652690 16.425250 1.733169 -149.638995 -79.439303 -178.759639 -8.121205 -1.520544 3.498669 -7.158613 0.475033 -63.015992 -3.500104 -1.887958 5.614017 1.834650 5.098555 -11.514798 0.035200 -0.000000 -46.390900 10.145243 -2.194967 -3.237483 9.084001 -6.869464 -8.646125 2.460519 -0.754199 17.205668 0.223995 1.917065 5.186744 0.065899 -0.000000 -99.524500
5.431370 16.373655 1.757000 -149.741816 -79.095676 -178.695506 -8.223052 -1.473167 3.488354 -7.018097 0.768424 -63.014374 -3.454218 -1.711974 6.301290 1.773344 5.229171 -10.303480 0.218500 -0.000000 -46.912800 10.190267 -2.292293 -3.133616 8.673150 -6.828205 -8.051335 2.389747 -0.793167 17.224074 0.260050 2.216340 6.131250 0.162800 0.000000 -100.739000
5.209316 16.320116 1.778710 -150.078207 -78.868112 -178.373550 -8.332519 -1.382721 3.455290 -7.141916 1.023709 -63.305766 -3.437039 -1.442106 7.554833 1.704151 5.379840 -8.804677 0.448300 0.000000 -47.187100 10.239698 -2.389702 -3.019079 8.214435 -6.843780 -7.627875 2.305563 -0.845000 17.449644 0.286653 2.505779 7.046633 0.269600 -0.000000 -101.828000
4.988002 16.265662 1.797616 -150.696967 -78.774562 -177.758045 -8.442599 -1.258695 3.396549 -7.515923 1.222394 -63.852512 -3.436973 -1.090695 9.319748 1.631312 5.537396 -7.102546 0.709200 -0.000000 -46.957400 10.295969 -2.483881 -2.906510 7.699232 -6.942327 -7.377536 2.203665 -0.913429 17.915101 0.300457 2.765520 7.953040 0.382100 -0.000000 -102.771000
